<?xml version="1.0" standalone="no"?>
<!DOCTYPE svg PUBLIC "-//W3C//DTD SVG 1.1//EN" "http://www.w3.org/Graphics/SVG/1.1/DTD/svg11.dtd"><svg xmlns="http://www.w3.org/2000/svg" style="background-color:#FFF" width="1500" height="2100"><path stroke="black" fill="none" stroke-width="1" d="M808, 1203L734, 1203L716, 1154L554, 1154L554, 1152L556.105, 1150.081L558.079, 1147.866L559.944, 1145.396L561.721, 1142.712L565.096, 1136.871L568.377, 1130.676L571.736, 1124.459L575.345, 1118.552L577.297, 1115.819L579.376, 1113.288L581.603, 1111.002L584, 1109L588.975, 1105.623L594.22, 1102.648L599.731, 1100.05L605.502, 1097.803L611.527, 1095.883L617.801, 1094.262L624.317, 1092.918L631.072, 1091.822L638.059, 1090.952L645.272, 1090.28L652.706, 1089.781L660.356, 1089.431L668.216, 1089.203L676.28, 1089.072L684.543, 1089.013L693, 1089L692.141, 1083.478L690.758, 1077.89L688.968, 1072.289L686.889, 1066.731L682.325, 1055.957L680.074, 1050.85L678, 1046L672, 1025L668.555, 1016.388L665.217, 1007.579L658.76, 989.615L652.423, 971.594L646, 954L645.316, 952.044L644.545, 949.593L643.694, 946.727L642.772, 943.526L641.786, 940.069L640.744, 936.436L638.524, 928.963L636.177, 921.745L634.975, 918.431L633.765, 915.419L632.555, 912.791L631.352, 910.625L630.164, 909.001L629, 908L628.637, 910.409L628.075, 912.721L626.53, 917.085L624.72, 921.157L623, 925L619.199, 935.136L615.871, 945.302L612.607, 955.317L609, 965L607.179, 969.783L605.632, 974.537L602.994, 984L600.359, 993.463L598.816, 998.217L597, 1003L592.436, 1014.438L588.048, 1026.095L579.629, 1049.809L571.395, 1073.618L567.24, 1085.395L563, 1097L558.849, 1108.661L554.964, 1120.244L551.097, 1131.705L547, 1143L546.314, 1145.113L545.703, 1147.476L544.45, 1152.46L543.678, 1154.834L542.722, 1156.964L541.518, 1158.727L540, 1160L537.878, 1158.092L535.574, 1156.352L530.508, 1153.292L524.986, 1150.654L519.194, 1148.272L513.315, 1145.982L507.533, 1143.617L502.034, 1141.012L497, 1138L494.217, 1135.782L491.678, 1133.224L489.32, 1130.42L487.079, 1127.465L482.691, 1121.474L480.415, 1118.625L478, 1116L478.314, 1112.996L478.916, 1110.155L479.743, 1107.449L480.73, 1104.851L482.929, 1099.872L485, 1095L489.929, 1081.345L494.601, 1067.738L499.222, 1054.261L504, 1041L509.065, 1027.053L513.888, 1013.052L523.183, 985.041L532.636, 957.259L537.657, 943.545L543, 930L546.805, 920.142L550.243, 910.311L553.508, 900.579L556.794, 891.02L560.292, 881.71L564.198, 872.72L566.363, 868.369L568.702, 864.125L571.24, 859.999L574, 856L575.876, 853.621L578.166, 851.052L580.839, 848.35L583.863, 845.571L587.207, 842.772L590.839, 840.011L594.726, 837.344L598.838, 834.829L603.142, 832.522L607.608, 830.481L612.202, 828.763L616.894, 827.423L621.651, 826.52L626.442, 826.111L631.236, 826.252L636, 827L641.405, 828.33L646.476, 829.799L651.227, 831.403L655.674, 833.141L659.829, 835.012L663.709, 837.012L667.328, 839.141L670.701, 841.395L673.842, 843.774L676.767, 846.274L679.489, 848.894L682.024, 851.632L686.59, 857.452L690.582, 863.72L694.119, 870.419L697.318, 877.531L700.297, 885.042L703.172, 892.935L706.063, 901.194L709.086, 909.801L712.359, 918.742L716, 928L722.942, 945.655L729.502, 963.605L735.808, 981.751L741.988, 999.996L748.169, 1018.242L754.479, 1036.39L761.047, 1054.342L768, 1072L769.53, 1076.05L770.821, 1080.056L773.004, 1087.996L775.184, 1095.939L776.473, 1099.947L778, 1104L780.54, 1110.519L782.908, 1117.16L787.381, 1130.692L791.913, 1144.379L794.356, 1151.211L797, 1158L799.125, 1163.139L801.136, 1168.08L802.982, 1172.991L804.615, 1178.04L805.982, 1183.397L807.036, 1189.23L807.429, 1192.378L807.725, 1195.708L807.918, 1199.242L808, 1203"/><path stroke="black" fill="none" stroke-width="1" d="M527, 1203L447, 1203L447, 1201L448.18, 1199.065L449.091, 1196.971L450.397, 1192.446L451.505, 1187.698L452.167, 1185.326L453, 1183L455.756, 1176.22L458.601, 1169.067L461.395, 1161.881L464, 1155L464.774, 1152.54L465.467, 1149.761L466.902, 1143.864L467.789, 1141.051L468.886, 1138.534L470.265, 1136.466L471.084, 1135.648L472, 1135L475.615, 1139.735L479.718, 1144.124L484.245, 1148.182L489.131, 1151.922L494.313, 1155.36L499.728, 1158.51L505.311, 1161.385L511, 1164L514.397, 1165.343L518.065, 1166.662L521.811, 1168.061L525.445, 1169.649L528.772, 1171.53L531.602, 1173.811L532.77, 1175.135L533.742, 1176.599L534.493, 1178.216L535, 1180L533.563, 1182.161L532.225, 1184.733L530.998, 1187.613L529.896, 1190.697L528.119, 1197.063L527.471, 1200.137L527, 1203"/><path stroke="black" fill="none" stroke-width="1" d="M810, 897L810, 1203L734, 1203L734, 958L733.953, 947.877L733.857, 938.163L733.773, 928.856L733.767, 919.951L733.902, 911.444L734.243, 903.331L734.853, 895.608L735.795, 888.271L737.135, 881.316L738.936, 874.74L741.262, 868.537L744.176, 862.705L747.743, 857.24L749.791, 854.643L752.027, 852.136L754.458, 849.719L757.091, 847.391L759.936, 845.151L763, 843L767.549, 840.342L772.517, 838.088L777.871, 836.206L783.577, 834.665L789.6, 833.431L795.906, 832.474L802.461, 831.76L809.23, 831.258L816.18, 830.935L823.276, 830.759L837.768, 830.722L852.434, 830.888L867, 831L871.945, 831.011L877.17, 831.043L888.09, 831.156L899.023, 831.316L904.263, 831.407L909.229, 831.5L913.828, 831.593L917.968, 831.684L921.557, 831.768L924.502, 831.844L926.712, 831.908L927.512, 831.934L928.093, 831.957L928.444, 831.975L928.553, 831.989L928.409, 831.997L928, 832L932.654, 832.955L937.683, 833.914L942.62, 834.916L944.909, 835.445L947, 836L949.173, 836.594L951.582, 837.203L956.928, 838.495L962.679, 839.926L968.478, 841.55L973.967, 843.417L976.484, 844.458L978.789, 845.58L980.838, 846.788L982.586, 848.09L983.988, 849.492L985, 851L983.648, 851.64L981.822, 852.757L979.592, 854.288L977.029, 856.168L974.203, 858.335L971.186, 860.726L964.859, 865.924L958.611, 871.257L955.694, 873.816L953.009, 876.219L950.627, 878.401L948.617, 880.302L947.051, 881.855L946, 883L943.203, 886.324L940.823, 889.115L938.8, 891.417L937.072, 893.273L935.578, 894.73L934.256, 895.83L933.045, 896.618L931.883, 897.139L930.71, 897.437L929.463, 897.556L928.081, 897.54L926.503, 897.435L924.667, 897.284L922.512, 897.132L919.977, 897.022L917, 897L810, 897"/><path stroke="black" fill="none" stroke-width="1" d="M814, 1099L814.78, 1096.062L815.899, 1093.272L817.291, 1090.618L818.889, 1088.089L822.434, 1083.361L826, 1079L827.481, 1076.951L828.869, 1074.667L830.241, 1072.174L831.673, 1069.499L833.239, 1066.669L835.016, 1063.711L837.079, 1060.652L839.504, 1057.519L842.366, 1054.338L845.741, 1051.136L849.705, 1047.941L854.333, 1044.779L859.701, 1041.677L862.686, 1040.157L865.884, 1038.662L869.305, 1037.195L872.959, 1035.761L876.854, 1034.361L881, 1033L883.652, 1032.309L886.446, 1031.832L892.379, 1031.401L898.634, 1031.47L905.048, 1031.801L911.455, 1032.158L917.693, 1032.301L923.596, 1031.994L926.371, 1031.598L929, 1031L934.404, 1029.318L939.468, 1027.364L944.19, 1025.127L948.571, 1022.596L952.608, 1019.758L956.301, 1016.603L959.647, 1013.118L962.646, 1009.291L965.298, 1005.112L967.599, 1000.568L969.55, 995.649L971.149, 990.341L972.394, 984.634L973.286, 978.516L973.821, 971.975L974, 965L974.032, 957.77L973.919, 950.856L973.347, 944.264L972.79, 941.09L972, 938L970.96, 934.901L969.643, 931.586L968.086, 928.178L966.327, 924.797L964.401, 921.567L962.347, 918.61L960.201, 916.047L958, 914L956.364, 912.857L954.558, 911.792L950.786, 909.679L948.99, 908.522L947.37, 907.227L946.011, 905.737L945, 904L945.217, 903.918L945.595, 903.624L946.129, 903.133L946.818, 902.46L947.659, 901.621L948.648, 900.632L951.06, 898.264L954.031, 895.481L957.539, 892.406L961.559, 889.165L966.07, 885.882L971.047, 882.68L976.467, 879.684L982.307, 877.019L988.545, 874.809L995.156, 873.177L998.594, 872.618L1002.118, 872.249L1005.723, 872.088L1009.407, 872.149L1013.167, 872.448L1017, 873L1020.962, 878.791L1024.992, 884.419L1032.929, 895.703L1036.67, 901.617L1040.151, 907.885L1043.288, 914.636L1044.703, 918.233L1046, 922L1047.309, 926.706L1048.296, 931.56L1049.006, 936.565L1049.485, 941.725L1049.779, 947.045L1049.932, 952.528L1050, 964L1049.872, 971.499L1049.489, 978.729L1048.858, 985.697L1047.98, 992.408L1046.862, 998.865L1045.507, 1005.075L1043.919, 1011.042L1042.102, 1016.772L1040.062, 1022.269L1037.801, 1027.538L1035.325, 1032.584L1032.637, 1037.413L1029.742, 1042.03L1026.644, 1046.438L1023.348, 1050.644L1019.856, 1054.653L1016.175, 1058.468L1012.307, 1062.097L1008.258, 1065.542L1004.031, 1068.81L999.63, 1071.906L995.061, 1074.834L990.327, 1077.599L985.432, 1080.207L980.381, 1082.662L975.177, 1084.97L969.826, 1087.135L964.331, 1089.163L952.928, 1092.827L941, 1096L938.599, 1096.463L935.511, 1096.875L931.837, 1097.238L927.676, 1097.557L923.127, 1097.834L918.291, 1098.072L908.152, 1098.445L898.057, 1098.699L893.275, 1098.79L888.803, 1098.86L884.739, 1098.913L881.185, 1098.952L878.238, 1098.98L876, 1099L814, 1099"/></svg>